<svg width="109" height="114" viewBox="0 0 109 114" fill="none" xmlns="http://www.w3.org/2000/svg">
<path d="M6.476 12L10.116 1.878H11.957L15.59 12H13.882L12.979 9.459H9.115L8.191 12H6.476ZM9.507 7.947H12.559L11.04 3.537L9.507 7.947ZM19.1145 12.105C18.6478 12.105 18.2745 12.0467 17.9945 11.93C17.7145 11.8133 17.5045 11.657 17.3645 11.461C17.2245 11.265 17.1335 11.0457 17.0915 10.803C17.0495 10.5557 17.0285 10.3037 17.0285 10.047V1.598H18.6945V9.851C18.6945 10.1637 18.7575 10.4063 18.8835 10.579C19.0142 10.7517 19.2242 10.852 19.5135 10.88L19.8775 10.894V11.965C19.7515 12.0023 19.6232 12.035 19.4925 12.063C19.3618 12.091 19.2358 12.105 19.1145 12.105ZM23.2844 12.105C22.8178 12.105 22.4444 12.0467 22.1644 11.93C21.8844 11.8133 21.6744 11.657 21.5344 11.461C21.3944 11.265 21.3034 11.0457 21.2614 10.803C21.2194 10.5557 21.1984 10.3037 21.1984 10.047V1.598H22.8644V9.851C22.8644 10.1637 22.9274 10.4063 23.0534 10.579C23.1841 10.7517 23.3941 10.852 23.6834 10.88L24.0474 10.894V11.965C23.9214 12.0023 23.7931 12.035 23.6624 12.063C23.5318 12.091 23.4058 12.105 23.2844 12.105ZM28.9223 1.878C28.9643 1.878 29.0879 1.878 29.2933 1.878C29.4986 1.878 29.7413 1.878 30.0213 1.878C30.3059 1.878 30.5929 1.88033 30.8823 1.885C31.1763 1.885 31.4306 1.88733 31.6453 1.892C32.8773 1.91533 33.8783 2.12767 34.6483 2.529C35.4229 2.92567 35.9899 3.49267 36.3493 4.23C36.7133 4.96267 36.8953 5.847 36.8953 6.883C36.8953 7.96567 36.7016 8.88733 36.3143 9.648C35.9316 10.4087 35.3436 10.992 34.5503 11.398C33.7616 11.7993 32.7583 12 31.5403 12H28.9223V1.878ZM30.6513 3.285V10.593H31.5683C32.2636 10.593 32.8773 10.474 33.4093 10.236C33.9413 9.99333 34.3566 9.60133 34.6553 9.06C34.9586 8.51867 35.1103 7.79533 35.1103 6.89C35.1103 6.01267 34.9703 5.31033 34.6903 4.783C34.4103 4.25567 34.0089 3.87533 33.4863 3.642C32.9636 3.404 32.3383 3.285 31.6103 3.285H30.6513ZM39.9124 8.773C39.9077 9.18367 39.973 9.54767 40.1084 9.865C40.2437 10.1823 40.4444 10.432 40.7104 10.614C40.9764 10.7913 41.3054 10.88 41.6974 10.88C42.0987 10.88 42.4464 10.7913 42.7404 10.614C43.039 10.432 43.2374 10.1567 43.3354 9.788H44.8964C44.8124 10.292 44.6117 10.719 44.2944 11.069C43.977 11.419 43.592 11.685 43.1394 11.867C42.6914 12.049 42.2247 12.14 41.7394 12.14C41.0394 12.14 40.4234 11.993 39.8914 11.699C39.364 11.4003 38.951 10.9757 38.6524 10.425C38.3584 9.87433 38.2114 9.21867 38.2114 8.458C38.2114 7.716 38.3467 7.058 38.6174 6.484C38.888 5.90533 39.2777 5.45033 39.7864 5.119C40.2997 4.78767 40.9157 4.622 41.6344 4.622C42.3484 4.622 42.948 4.77367 43.4334 5.077C43.9234 5.38033 44.292 5.805 44.5394 6.351C44.7914 6.89233 44.9174 7.527 44.9174 8.255V8.773H39.9124ZM39.9124 7.716H43.3074C43.3074 7.366 43.2467 7.051 43.1254 6.771C43.004 6.48633 42.8174 6.26233 42.5654 6.099C42.318 5.931 42.0054 5.847 41.6274 5.847C41.254 5.847 40.939 5.938 40.6824 6.12C40.4257 6.302 40.232 6.53767 40.1014 6.827C39.9707 7.11167 39.9077 7.408 39.9124 7.716ZM49.2007 12.14C48.6967 12.14 48.2184 12.0607 47.7657 11.902C47.3177 11.7387 46.9397 11.4843 46.6317 11.139C46.3284 10.7937 46.1371 10.348 46.0577 9.802H47.5557C47.6211 10.068 47.7354 10.285 47.8987 10.453C48.0667 10.621 48.2651 10.7447 48.4937 10.824C48.7224 10.8987 48.9557 10.936 49.1937 10.936C49.6277 10.936 49.9777 10.8613 50.2437 10.712C50.5144 10.5627 50.6497 10.3317 50.6497 10.019C50.6497 9.79033 50.5751 9.60833 50.4257 9.473C50.2764 9.33767 50.0384 9.235 49.7117 9.165L48.3327 8.85C47.7214 8.71467 47.2291 8.49067 46.8557 8.178C46.4871 7.86533 46.3004 7.42433 46.2957 6.855C46.2911 6.42567 46.3984 6.043 46.6177 5.707C46.8371 5.371 47.1637 5.10733 47.5977 4.916C48.0317 4.72 48.5684 4.622 49.2077 4.622C50.0524 4.622 50.7291 4.811 51.2377 5.189C51.7464 5.56233 52.0077 6.09667 52.0217 6.792H50.5727C50.5214 6.47933 50.3744 6.23667 50.1317 6.064C49.8891 5.88667 49.5741 5.798 49.1867 5.798C48.7854 5.798 48.4564 5.875 48.1997 6.029C47.9431 6.183 47.8147 6.41867 47.8147 6.736C47.8147 6.95533 47.9127 7.128 48.1087 7.254C48.3047 7.38 48.5987 7.48733 48.9907 7.576L50.2927 7.891C50.6661 7.98433 50.9717 8.11033 51.2097 8.269C51.4477 8.42767 51.6344 8.60267 51.7697 8.794C51.9051 8.98067 51.9984 9.17433 52.0497 9.375C52.1057 9.571 52.1337 9.753 52.1337 9.921C52.1337 10.3877 52.0124 10.7867 51.7697 11.118C51.5317 11.4447 51.1934 11.6967 50.7547 11.874C50.3161 12.0513 49.7981 12.14 49.2007 12.14ZM55.4945 4.762V12H53.8565V4.762H55.4945ZM55.5155 1.885V3.495H53.8285V1.885H55.5155ZM57.6203 12V4.762H59.2863V5.798C59.3983 5.61133 59.55 5.43167 59.7413 5.259C59.9373 5.08633 60.1776 4.94633 60.4623 4.839C60.747 4.73167 61.0806 4.678 61.4633 4.678C61.9113 4.678 62.3266 4.76667 62.7093 4.944C63.0966 5.12133 63.407 5.399 63.6403 5.777C63.8783 6.155 63.9973 6.64267 63.9973 7.24V12H62.2893V7.443C62.2893 6.967 62.1586 6.61467 61.8973 6.386C61.636 6.15267 61.307 6.036 60.9103 6.036C60.6396 6.036 60.383 6.08267 60.1403 6.176C59.8976 6.26467 59.6993 6.40233 59.5453 6.589C59.396 6.771 59.3213 6.99967 59.3213 7.275V12H57.6203ZM69.0364 14.394C67.8184 14.394 66.8828 14.2307 66.2294 13.904C65.5761 13.5773 65.2494 13.1293 65.2494 12.56C65.2494 12.3033 65.3124 12.0887 65.4384 11.916C65.5644 11.7433 65.7138 11.601 65.8864 11.489C66.0591 11.377 66.2178 11.2907 66.3624 11.23C66.5071 11.1693 66.6004 11.125 66.6424 11.097C66.5631 11.0503 66.4581 10.9897 66.3274 10.915C66.1968 10.8403 66.0778 10.7377 65.9704 10.607C65.8678 10.4763 65.8164 10.306 65.8164 10.096C65.8164 9.85333 65.9308 9.62933 66.1594 9.424C66.3928 9.21867 66.7404 9.07167 67.2024 8.983C66.7498 8.76367 66.4021 8.46733 66.1594 8.094C65.9168 7.72067 65.7954 7.33333 65.7954 6.932C65.7954 6.456 65.9331 6.04767 66.2084 5.707C66.4884 5.36633 66.8758 5.105 67.3704 4.923C67.8698 4.741 68.4461 4.65 69.0994 4.65C69.5848 4.65 69.9861 4.70367 70.3034 4.811C70.6208 4.91833 70.9171 5.063 71.1924 5.245C71.2858 5.20767 71.4164 5.15633 71.5844 5.091C71.7571 5.021 71.9438 4.94633 72.1444 4.867C72.3451 4.783 72.5364 4.70367 72.7184 4.629C72.9051 4.54967 73.0638 4.48433 73.1944 4.433L73.1804 5.84L71.9274 6.064C71.9881 6.19933 72.0348 6.34633 72.0674 6.505C72.1048 6.66367 72.1234 6.80367 72.1234 6.925C72.1234 7.345 72.0044 7.73467 71.7664 8.094C71.5331 8.44867 71.1808 8.73333 70.7094 8.948C70.2428 9.16267 69.6594 9.27 68.9594 9.27C68.8894 9.27 68.7938 9.26767 68.6724 9.263C68.5511 9.25833 68.4531 9.25367 68.3784 9.249C68.0004 9.263 67.7414 9.30733 67.6014 9.382C67.4614 9.45667 67.3914 9.53833 67.3914 9.627C67.3914 9.753 67.4964 9.837 67.7064 9.879C67.9164 9.921 68.2524 9.95833 68.7144 9.991C68.8778 10.0003 69.0924 10.012 69.3584 10.026C69.6244 10.04 69.9208 10.0587 70.2474 10.082C71.0734 10.1333 71.6988 10.341 72.1234 10.705C72.5481 11.0643 72.7604 11.531 72.7604 12.105C72.7604 12.7723 72.4524 13.3207 71.8364 13.75C71.2204 14.1793 70.2871 14.394 69.0364 14.394ZM69.3234 13.393C69.9348 13.393 70.3874 13.309 70.6814 13.141C70.9754 12.973 71.1224 12.7257 71.1224 12.399C71.1224 12.147 71.0221 11.9417 70.8214 11.783C70.6208 11.6243 70.3221 11.531 69.9254 11.503L68.0984 11.391C67.8978 11.377 67.7064 11.4143 67.5244 11.503C67.3471 11.587 67.2024 11.706 67.0904 11.86C66.9784 12.0093 66.9224 12.175 66.9224 12.357C66.9224 12.6977 67.1184 12.9543 67.5104 13.127C67.9024 13.3043 68.5068 13.393 69.3234 13.393ZM69.0154 8.269C69.4588 8.269 69.8181 8.157 70.0934 7.933C70.3688 7.70433 70.5064 7.38233 70.5064 6.967C70.5064 6.53767 70.3688 6.204 70.0934 5.966C69.8181 5.72333 69.4588 5.602 69.0154 5.602C68.5628 5.602 68.1964 5.72333 67.9164 5.966C67.6411 6.20867 67.5034 6.54233 67.5034 6.967C67.5034 7.36833 67.6364 7.68567 67.9024 7.919C68.1684 8.15233 68.5394 8.269 69.0154 8.269ZM74.5598 12V4.762H76.2258V5.798C76.3378 5.61133 76.4894 5.43167 76.6808 5.259C76.8768 5.08633 77.1171 4.94633 77.4018 4.839C77.6864 4.73167 78.0201 4.678 78.4028 4.678C78.8508 4.678 79.2661 4.76667 79.6488 4.944C80.0361 5.12133 80.3464 5.399 80.5798 5.777C80.8178 6.155 80.9368 6.64267 80.9368 7.24V12H79.2288V7.443C79.2288 6.967 79.0981 6.61467 78.8368 6.386C78.5754 6.15267 78.2464 6.036 77.8498 6.036C77.5791 6.036 77.3224 6.08267 77.0798 6.176C76.8371 6.26467 76.6388 6.40233 76.4848 6.589C76.3354 6.771 76.2608 6.99967 76.2608 7.275V12H74.5598ZM84.0999 8.773C84.0952 9.18367 84.1605 9.54767 84.2959 9.865C84.4312 10.1823 84.6319 10.432 84.8979 10.614C85.1639 10.7913 85.4929 10.88 85.8849 10.88C86.2862 10.88 86.6339 10.7913 86.9279 10.614C87.2265 10.432 87.4249 10.1567 87.5229 9.788H89.0839C88.9999 10.292 88.7992 10.719 88.4819 11.069C88.1645 11.419 87.7795 11.685 87.3269 11.867C86.8789 12.049 86.4122 12.14 85.9269 12.14C85.2269 12.14 84.6109 11.993 84.0789 11.699C83.5515 11.4003 83.1385 10.9757 82.8399 10.425C82.5459 9.87433 82.3989 9.21867 82.3989 8.458C82.3989 7.716 82.5342 7.058 82.8049 6.484C83.0755 5.90533 83.4652 5.45033 83.9739 5.119C84.4872 4.78767 85.1032 4.622 85.8219 4.622C86.5359 4.622 87.1355 4.77367 87.6209 5.077C88.1109 5.38033 88.4795 5.805 88.7269 6.351C88.9789 6.89233 89.1049 7.527 89.1049 8.255V8.773H84.0999ZM84.0999 7.716H87.4949C87.4949 7.366 87.4342 7.051 87.3129 6.771C87.1915 6.48633 87.0049 6.26233 86.7529 6.099C86.5055 5.931 86.1929 5.847 85.8149 5.847C85.4415 5.847 85.1265 5.938 84.8699 6.12C84.6132 6.302 84.4195 6.53767 84.2889 6.827C84.1582 7.11167 84.0952 7.408 84.0999 7.716ZM90.6926 12V4.762H92.3236V6.33C92.4402 5.97067 92.6059 5.665 92.8206 5.413C93.0399 5.15633 93.2966 4.96033 93.5906 4.825C93.8846 4.68967 94.2042 4.622 94.5496 4.622C94.6336 4.622 94.7152 4.62667 94.7946 4.636C94.8739 4.64533 94.9322 4.66167 94.9696 4.685V6.316C94.9182 6.29267 94.8506 6.27633 94.7666 6.267C94.6872 6.25767 94.6172 6.253 94.5566 6.253C94.2066 6.225 93.8962 6.239 93.6256 6.295C93.3596 6.351 93.1332 6.44667 92.9466 6.582C92.7646 6.71267 92.6269 6.88067 92.5336 7.086C92.4402 7.28667 92.3936 7.52233 92.3936 7.793V12H90.6926ZM98.9663 12.14C98.4623 12.14 97.984 12.0607 97.5313 11.902C97.0833 11.7387 96.7053 11.4843 96.3973 11.139C96.094 10.7937 95.9027 10.348 95.8233 9.802H97.3213C97.3867 10.068 97.501 10.285 97.6643 10.453C97.8323 10.621 98.0307 10.7447 98.2593 10.824C98.488 10.8987 98.7213 10.936 98.9593 10.936C99.3933 10.936 99.7433 10.8613 100.009 10.712C100.28 10.5627 100.415 10.3317 100.415 10.019C100.415 9.79033 100.341 9.60833 100.191 9.473C100.042 9.33767 99.804 9.235 99.4773 9.165L98.0983 8.85C97.487 8.71467 96.9947 8.49067 96.6213 8.178C96.2527 7.86533 96.066 7.42433 96.0613 6.855C96.0567 6.42567 96.164 6.043 96.3833 5.707C96.6027 5.371 96.9293 5.10733 97.3633 4.916C97.7973 4.72 98.334 4.622 98.9733 4.622C99.818 4.622 100.495 4.811 101.003 5.189C101.512 5.56233 101.773 6.09667 101.787 6.792H100.338C100.287 6.47933 100.14 6.23667 99.8973 6.064C99.6547 5.88667 99.3397 5.798 98.9523 5.798C98.551 5.798 98.222 5.875 97.9653 6.029C97.7087 6.183 97.5803 6.41867 97.5803 6.736C97.5803 6.95533 97.6783 7.128 97.8743 7.254C98.0703 7.38 98.3643 7.48733 98.7563 7.576L100.058 7.891C100.432 7.98433 100.737 8.11033 100.975 8.269C101.213 8.42767 101.4 8.60267 101.535 8.794C101.671 8.98067 101.764 9.17433 101.815 9.375C101.871 9.571 101.899 9.753 101.899 9.921C101.899 10.3877 101.778 10.7867 101.535 11.118C101.297 11.4447 100.959 11.6967 100.52 11.874C100.082 12.0513 99.5637 12.14 98.9663 12.14Z" fill="#152427"/>
<path opacity="0.4" d="M6.23 24.62V23.77H11.7V24.62H9.495V31H8.565V24.62H6.23ZM14.0641 31.1C13.5875 31.1 13.1708 30.9983 12.8141 30.795C12.4575 30.5883 12.1808 30.2867 11.9841 29.89C11.7875 29.4933 11.6891 29.0083 11.6891 28.435C11.6891 27.895 11.7808 27.4217 11.9641 27.015C12.1475 26.6083 12.4158 26.2933 12.7691 26.07C13.1258 25.8433 13.5575 25.73 14.0641 25.73C14.5408 25.73 14.9541 25.835 15.3041 26.045C15.6575 26.2517 15.9308 26.5567 16.1241 26.96C16.3175 27.3633 16.4141 27.855 16.4141 28.435C16.4141 28.9617 16.3241 29.425 16.1441 29.825C15.9675 30.225 15.7041 30.5383 15.3541 30.765C15.0075 30.9883 14.5775 31.1 14.0641 31.1ZM14.0641 30.37C14.3741 30.37 14.6358 30.2917 14.8491 30.135C15.0625 29.9783 15.2241 29.7533 15.3341 29.46C15.4441 29.1667 15.4991 28.8183 15.4991 28.415C15.4991 28.045 15.4508 27.7133 15.3541 27.42C15.2575 27.1233 15.1025 26.8883 14.8891 26.715C14.6791 26.5417 14.4041 26.455 14.0641 26.455C13.7508 26.455 13.4858 26.5333 13.2691 26.69C13.0525 26.8433 12.8875 27.0667 12.7741 27.36C12.6641 27.6533 12.6091 28.005 12.6091 28.415C12.6091 28.7783 12.6591 29.1083 12.7591 29.405C12.8591 29.7017 13.0158 29.9367 13.2291 30.11C13.4425 30.2833 13.7208 30.37 14.0641 30.37ZM20.085 26.505H18.92V29.72C18.92 29.9033 18.9383 30.0383 18.975 30.125C19.015 30.2083 19.08 30.2617 19.17 30.285C19.2633 30.3083 19.39 30.32 19.55 30.32H20.115V30.94C20.0517 30.9633 19.955 30.9833 19.825 31C19.6983 31.0167 19.54 31.025 19.35 31.025C18.9933 31.025 18.7167 30.9767 18.52 30.88C18.3233 30.7833 18.185 30.64 18.105 30.45C18.0283 30.26 17.99 30.0267 17.99 29.75V26.505H17.15V25.83H18.015L18.24 24.325H18.92V25.825H20.085V26.505ZM22.8141 31.1C22.4808 31.1 22.1858 31.0417 21.9291 30.925C21.6725 30.805 21.4708 30.6333 21.3241 30.41C21.1808 30.1867 21.1091 29.9167 21.1091 29.6C21.1091 29.0267 21.3091 28.6 21.7091 28.32C22.1091 28.04 22.7508 27.89 23.6341 27.87L24.5591 27.845V27.44C24.5591 27.1233 24.4641 26.8733 24.2741 26.69C24.0841 26.5033 23.7891 26.41 23.3891 26.41C23.0925 26.4133 22.8308 26.4833 22.6041 26.62C22.3808 26.7567 22.2358 26.98 22.1691 27.29H21.3541C21.3741 26.9533 21.4691 26.67 21.6391 26.44C21.8091 26.2067 22.0458 26.03 22.3491 25.91C22.6558 25.79 23.0175 25.73 23.4341 25.73C23.8841 25.73 24.2575 25.7933 24.5541 25.92C24.8541 26.0467 25.0775 26.2333 25.2241 26.48C25.3741 26.7267 25.4491 27.03 25.4491 27.39V31H24.6591L24.5941 30.03C24.3941 30.4333 24.1391 30.7133 23.8291 30.87C23.5225 31.0233 23.1841 31.1 22.8141 31.1ZM23.0941 30.435C23.2675 30.435 23.4391 30.4033 23.6091 30.34C23.7825 30.2767 23.9408 30.1917 24.0841 30.085C24.2275 29.975 24.3408 29.8533 24.4241 29.72C24.5108 29.5833 24.5558 29.4433 24.5591 29.3V28.415L23.7891 28.43C23.3958 28.4367 23.0658 28.4767 22.7991 28.55C22.5358 28.6233 22.3375 28.7383 22.2041 28.895C22.0741 29.0517 22.0091 29.2567 22.0091 29.51C22.0091 29.8 22.1091 30.0267 22.3091 30.19C22.5125 30.3533 22.7741 30.435 23.0941 30.435ZM28.3337 31.065C28.0537 31.065 27.827 31.0267 27.6537 30.95C27.4837 30.8733 27.352 30.77 27.2587 30.64C27.1687 30.51 27.107 30.3617 27.0737 30.195C27.0437 30.025 27.0287 29.85 27.0287 29.67V23.57H27.9387V29.58C27.9387 29.84 27.9887 30.035 28.0887 30.165C28.192 30.295 28.3353 30.3667 28.5187 30.38L28.7987 30.385V30.985C28.722 31.0083 28.642 31.0267 28.5587 31.04C28.4753 31.0567 28.4003 31.065 28.3337 31.065ZM32.5019 31V23.77H34.8269C35.7069 23.77 36.3719 23.9317 36.8219 24.255C37.2752 24.5783 37.5019 25.045 37.5019 25.655C37.5019 26.0383 37.4019 26.3667 37.2019 26.64C37.0052 26.9133 36.6585 27.1383 36.1619 27.315C36.4452 27.375 36.6835 27.4617 36.8769 27.575C37.0735 27.6883 37.2302 27.8217 37.3469 27.975C37.4669 28.125 37.5519 28.2917 37.6019 28.475C37.6552 28.6583 37.6819 28.8517 37.6819 29.055C37.6819 29.7083 37.4485 30.1967 36.9819 30.52C36.5185 30.84 35.8252 31 34.9019 31H32.5019ZM33.4269 30.23H34.8919C35.4952 30.23 35.9535 30.1317 36.2669 29.935C36.5835 29.735 36.7419 29.4283 36.7419 29.015C36.7419 28.7117 36.6635 28.4667 36.5069 28.28C36.3535 28.09 36.1452 27.9517 35.8819 27.865C35.6185 27.7783 35.3252 27.735 35.0019 27.735H33.4269V30.23ZM33.4269 26.95H35.0019C35.1919 26.95 35.3802 26.9317 35.5669 26.895C35.7535 26.8583 35.9252 26.795 36.0819 26.705C36.2385 26.615 36.3652 26.495 36.4619 26.345C36.5585 26.1917 36.6069 26 36.6069 25.77C36.6069 25.35 36.4452 25.04 36.1219 24.84C35.8019 24.6367 35.3852 24.535 34.8719 24.535H33.4269V26.95ZM40.4509 31.1C40.1175 31.1 39.8225 31.0417 39.5659 30.925C39.3092 30.805 39.1075 30.6333 38.9609 30.41C38.8175 30.1867 38.7459 29.9167 38.7459 29.6C38.7459 29.0267 38.9459 28.6 39.3459 28.32C39.7459 28.04 40.3875 27.89 41.2709 27.87L42.1959 27.845V27.44C42.1959 27.1233 42.1009 26.8733 41.9109 26.69C41.7209 26.5033 41.4259 26.41 41.0259 26.41C40.7292 26.4133 40.4675 26.4833 40.2409 26.62C40.0175 26.7567 39.8725 26.98 39.8059 27.29H38.9909C39.0109 26.9533 39.1059 26.67 39.2759 26.44C39.4459 26.2067 39.6825 26.03 39.9859 25.91C40.2925 25.79 40.6542 25.73 41.0709 25.73C41.5209 25.73 41.8942 25.7933 42.1909 25.92C42.4909 26.0467 42.7142 26.2333 42.8609 26.48C43.0109 26.7267 43.0859 27.03 43.0859 27.39V31H42.2959L42.2309 30.03C42.0309 30.4333 41.7759 30.7133 41.4659 30.87C41.1592 31.0233 40.8209 31.1 40.4509 31.1ZM40.7309 30.435C40.9042 30.435 41.0759 30.4033 41.2459 30.34C41.4192 30.2767 41.5775 30.1917 41.7209 30.085C41.8642 29.975 41.9775 29.8533 42.0609 29.72C42.1475 29.5833 42.1925 29.4433 42.1959 29.3V28.415L41.4259 28.43C41.0325 28.4367 40.7025 28.4767 40.4359 28.55C40.1725 28.6233 39.9742 28.7383 39.8409 28.895C39.7109 29.0517 39.6459 29.2567 39.6459 29.51C39.6459 29.8 39.7459 30.0267 39.9459 30.19C40.1492 30.3533 40.4109 30.435 40.7309 30.435ZM45.9704 31.065C45.6904 31.065 45.4637 31.0267 45.2904 30.95C45.1204 30.8733 44.9887 30.77 44.8954 30.64C44.8054 30.51 44.7437 30.3617 44.7104 30.195C44.6804 30.025 44.6654 29.85 44.6654 29.67V23.57H45.5754V29.58C45.5754 29.84 45.6254 30.035 45.7254 30.165C45.8287 30.295 45.9721 30.3667 46.1554 30.38L46.4354 30.385V30.985C46.3587 31.0083 46.2787 31.0267 46.1954 31.04C46.1121 31.0567 46.0371 31.065 45.9704 31.065ZM49.0251 31.1C48.6917 31.1 48.3967 31.0417 48.1401 30.925C47.8834 30.805 47.6817 30.6333 47.5351 30.41C47.3917 30.1867 47.3201 29.9167 47.3201 29.6C47.3201 29.0267 47.5201 28.6 47.9201 28.32C48.3201 28.04 48.9617 27.89 49.8451 27.87L50.7701 27.845V27.44C50.7701 27.1233 50.6751 26.8733 50.4851 26.69C50.2951 26.5033 50.0001 26.41 49.6001 26.41C49.3034 26.4133 49.0417 26.4833 48.8151 26.62C48.5917 26.7567 48.4467 26.98 48.3801 27.29H47.5651C47.5851 26.9533 47.6801 26.67 47.8501 26.44C48.0201 26.2067 48.2567 26.03 48.5601 25.91C48.8667 25.79 49.2284 25.73 49.6451 25.73C50.0951 25.73 50.4684 25.7933 50.7651 25.92C51.0651 26.0467 51.2884 26.2333 51.4351 26.48C51.5851 26.7267 51.6601 27.03 51.6601 27.39V31H50.8701L50.8051 30.03C50.6051 30.4333 50.3501 30.7133 50.0401 30.87C49.7334 31.0233 49.3951 31.1 49.0251 31.1ZM49.3051 30.435C49.4784 30.435 49.6501 30.4033 49.8201 30.34C49.9934 30.2767 50.1517 30.1917 50.2951 30.085C50.4384 29.975 50.5517 29.8533 50.6351 29.72C50.7217 29.5833 50.7667 29.4433 50.7701 29.3V28.415L50.0001 28.43C49.6067 28.4367 49.2767 28.4767 49.0101 28.55C48.7467 28.6233 48.5484 28.7383 48.4151 28.895C48.2851 29.0517 48.2201 29.2567 48.2201 29.51C48.2201 29.8 48.3201 30.0267 48.5201 30.19C48.7234 30.3533 48.9851 30.435 49.3051 30.435ZM53.2396 31V25.83H54.1346V26.58C54.2179 26.4367 54.3329 26.3017 54.4796 26.175C54.6296 26.0483 54.8096 25.9467 55.0196 25.87C55.2329 25.7933 55.4779 25.755 55.7546 25.755C56.0813 25.755 56.3813 25.82 56.6546 25.95C56.9313 26.08 57.1513 26.2833 57.3146 26.56C57.4813 26.8333 57.5646 27.1867 57.5646 27.62V31H56.6396V27.71C56.6396 27.3067 56.5329 27.0083 56.3196 26.815C56.1096 26.6183 55.8363 26.52 55.4996 26.52C55.2663 26.52 55.0479 26.5583 54.8446 26.635C54.6413 26.7083 54.4763 26.8217 54.3496 26.975C54.2229 27.125 54.1596 27.315 54.1596 27.545V31H53.2396ZM61.0711 25.73C61.4411 25.73 61.7744 25.8017 62.0711 25.945C62.3678 26.085 62.6094 26.285 62.7961 26.545C62.9861 26.805 63.1044 27.1117 63.1511 27.465H62.3311C62.3011 27.285 62.2311 27.12 62.1211 26.97C62.0144 26.82 61.8728 26.7 61.6961 26.61C61.5194 26.52 61.3128 26.475 61.0761 26.475C60.6328 26.475 60.2728 26.635 59.9961 26.955C59.7194 27.275 59.5811 27.765 59.5811 28.425C59.5811 29.0217 59.7078 29.5 59.9611 29.86C60.2178 30.2167 60.5944 30.395 61.0911 30.395C61.3278 30.395 61.5328 30.35 61.7061 30.26C61.8828 30.1667 62.0244 30.045 62.1311 29.895C62.2378 29.7417 62.3061 29.5783 62.3361 29.405H63.1411C63.0978 29.7517 62.9811 30.0517 62.7911 30.305C62.6011 30.5583 62.3578 30.755 62.0611 30.895C61.7678 31.0317 61.4378 31.1 61.0711 31.1C60.6078 31.1 60.1961 30.9983 59.8361 30.795C59.4794 30.5917 59.1994 30.2917 58.9961 29.895C58.7928 29.4983 58.6911 29.0117 58.6911 28.435C58.6911 27.895 58.7828 27.4233 58.9661 27.02C59.1528 26.6133 59.4228 26.2967 59.7761 26.07C60.1328 25.8433 60.5644 25.73 61.0711 25.73ZM65.0617 28.63C65.0617 28.9567 65.1151 29.2533 65.2217 29.52C65.3317 29.7833 65.4967 29.9933 65.7167 30.15C65.9401 30.3067 66.2184 30.385 66.5517 30.385C66.8817 30.385 67.1651 30.3083 67.4017 30.155C67.6417 30.0017 67.7951 29.78 67.8617 29.49H68.7367C68.6734 29.84 68.5334 30.135 68.3167 30.375C68.1001 30.615 67.8384 30.7967 67.5317 30.92C67.2251 31.04 66.9051 31.1 66.5717 31.1C66.0884 31.1 65.6634 30.995 65.2967 30.785C64.9301 30.575 64.6434 30.2733 64.4367 29.88C64.2301 29.4867 64.1267 29.015 64.1267 28.465C64.1267 27.9217 64.2201 27.445 64.4067 27.035C64.5934 26.625 64.8634 26.305 65.2167 26.075C65.5734 25.845 66.0017 25.73 66.5017 25.73C66.9884 25.73 67.4001 25.835 67.7367 26.045C68.0734 26.255 68.3284 26.5517 68.5017 26.935C68.6784 27.315 68.7667 27.7667 68.7667 28.29V28.63H65.0617ZM65.0667 28.005H67.8767C67.8767 27.7083 67.8267 27.4417 67.7267 27.205C67.6267 26.965 67.4734 26.7767 67.2667 26.64C67.0634 26.5 66.8067 26.43 66.4967 26.43C66.1734 26.43 65.9051 26.5083 65.6917 26.665C65.4817 26.8183 65.3234 27.0167 65.2167 27.26C65.1134 27.5 65.0634 27.7483 65.0667 28.005Z" fill="#575D5E"/>
<rect x="6" y="61" width="96" height="2" rx="1" fill="#EAEAEA"/>
<rect x="6" y="61" width="40" height="2" rx="1" fill="#83A17D"/>
<path d="M9.805 47.77H10.88V52.295H12.055V53.22H10.88V55H9.84V53.22H6.455V52.28L9.805 47.77ZM7.465 52.295H9.825V49.13L7.465 52.295ZM15.4674 47.67C16.2708 47.67 16.9091 47.9867 17.3824 48.62C17.8591 49.25 18.0974 50.1767 18.0974 51.4C18.0974 52.6167 17.8608 53.54 17.3874 54.17C16.9174 54.7967 16.2758 55.11 15.4624 55.11C14.6458 55.11 14.0024 54.7983 13.5324 54.175C13.0624 53.5483 12.8274 52.6267 12.8274 51.41C12.8274 50.5933 12.9358 49.9083 13.1524 49.355C13.3691 48.7983 13.6741 48.3783 14.0674 48.095C14.4641 47.8117 14.9308 47.67 15.4674 47.67ZM15.4674 54.2C15.9608 54.2 16.3308 53.9833 16.5774 53.55C16.8241 53.1133 16.9474 52.3983 16.9474 51.405C16.9474 50.3917 16.8224 49.6633 16.5724 49.22C16.3224 48.7733 15.9524 48.55 15.4624 48.55C14.9758 48.55 14.6041 48.775 14.3474 49.225C14.0908 49.6717 13.9624 50.3983 13.9624 51.405C13.9624 52.395 14.0891 53.1083 14.3424 53.545C14.5991 53.9817 14.9741 54.2 15.4674 54.2ZM20.8284 47.66C21.1584 47.66 21.4534 47.7467 21.7134 47.92C21.9767 48.0933 22.1834 48.3367 22.3334 48.65C22.4834 48.96 22.5584 49.32 22.5584 49.73C22.5584 50.14 22.4834 50.4983 22.3334 50.805C22.1867 51.1117 21.9817 51.3517 21.7184 51.525C21.4584 51.695 21.1617 51.78 20.8284 51.78C20.495 51.78 20.1967 51.695 19.9334 51.525C19.67 51.3517 19.4617 51.1117 19.3084 50.805C19.1584 50.4983 19.0834 50.14 19.0834 49.73C19.0834 49.32 19.16 48.96 19.3134 48.65C19.4667 48.3367 19.675 48.0933 19.9384 47.92C20.2017 47.7467 20.4984 47.66 20.8284 47.66ZM20.8184 51.2C21.125 51.2 21.3567 51.0667 21.5134 50.8C21.67 50.5333 21.7484 50.1767 21.7484 49.73C21.7484 49.2767 21.6684 48.915 21.5084 48.645C21.3484 48.3717 21.1184 48.235 20.8184 48.235C20.6184 48.235 20.45 48.2983 20.3134 48.425C20.1767 48.5483 20.0717 48.7233 19.9984 48.95C19.925 49.1733 19.8884 49.4333 19.8884 49.73C19.8884 50.1733 19.9684 50.53 20.1284 50.8C20.2884 51.0667 20.5184 51.2 20.8184 51.2ZM25.4134 50.97C25.7467 50.97 26.0434 51.0583 26.3034 51.235C26.5667 51.4117 26.7734 51.655 26.9234 51.965C27.0734 52.275 27.1484 52.6333 27.1484 53.04C27.1484 53.4533 27.0734 53.815 26.9234 54.125C26.7767 54.4317 26.5717 54.6717 26.3084 54.845C26.0484 55.015 25.75 55.1 25.4134 55.1C25.08 55.1 24.78 55.015 24.5134 54.845C24.25 54.6717 24.0434 54.4317 23.8934 54.125C23.7434 53.815 23.6684 53.4533 23.6684 53.04C23.6684 52.6333 23.7434 52.275 23.8934 51.965C24.0467 51.655 24.255 51.4117 24.5184 51.235C24.785 51.0583 25.0834 50.97 25.4134 50.97ZM25.4034 54.51C25.6 54.51 25.7684 54.4483 25.9084 54.325C26.0484 54.2017 26.155 54.0317 26.2284 53.815C26.3017 53.595 26.3384 53.34 26.3384 53.05C26.3384 52.7533 26.3 52.4933 26.2234 52.27C26.15 52.0467 26.0434 51.8717 25.9034 51.745C25.7667 51.6183 25.6 51.555 25.4034 51.555C25.21 51.555 25.0434 51.6183 24.9034 51.745C24.7667 51.8717 24.6617 52.0483 24.5884 52.275C24.515 52.4983 24.4784 52.7567 24.4784 53.05C24.4784 53.34 24.515 53.595 24.5884 53.815C24.6617 54.0317 24.7667 54.2017 24.9034 54.325C25.0434 54.4483 25.21 54.51 25.4034 54.51ZM25.8284 47.69L20.9684 55.04L20.2784 55.03L25.1584 47.69H25.8284Z" fill="#152427"/>
<path d="M63.92 69.77H65.005V76.06H68.345V77H63.915L63.92 69.77ZM71.4891 77.1C71.0057 77.1 70.5824 76.9967 70.2191 76.79C69.8591 76.58 69.5791 76.2767 69.3791 75.88C69.1824 75.4833 69.0841 75.0033 69.0841 74.44C69.0841 73.8967 69.1774 73.4217 69.3641 73.015C69.5541 72.6083 69.8291 72.2933 70.1891 72.07C70.5491 71.8433 70.9841 71.73 71.4941 71.73C71.9807 71.73 72.4024 71.8367 72.7591 72.05C73.1157 72.26 73.3924 72.5683 73.5891 72.975C73.7857 73.3783 73.8841 73.8667 73.8841 74.44C73.8841 74.9633 73.7907 75.425 73.6041 75.825C73.4207 76.225 73.1507 76.5383 72.7941 76.765C72.4407 76.9883 72.0057 77.1 71.4891 77.1ZM71.4941 76.275C71.7874 76.275 72.0324 76.1983 72.2291 76.045C72.4291 75.8883 72.5791 75.67 72.6791 75.39C72.7791 75.1067 72.8291 74.78 72.8291 74.41C72.8291 74.0667 72.7841 73.755 72.6941 73.475C72.6074 73.1917 72.4657 72.9667 72.2691 72.8C72.0724 72.6333 71.8141 72.55 71.4941 72.55C71.1941 72.55 70.9441 72.6267 70.7441 72.78C70.5441 72.93 70.3924 73.145 70.2891 73.425C70.1891 73.7017 70.1391 74.03 70.1391 74.41C70.1391 74.7467 70.1841 75.0567 70.2741 75.34C70.3641 75.6233 70.5091 75.85 70.7091 76.02C70.9091 76.19 71.1707 76.275 71.4941 76.275ZM76.9186 77.1C76.2386 77.1 75.7036 76.8683 75.3136 76.405C74.9236 75.9383 74.7286 75.2667 74.7286 74.39C74.7286 73.8533 74.8069 73.3867 74.9636 72.99C75.1203 72.59 75.3536 72.28 75.6636 72.06C75.9769 71.84 76.3636 71.73 76.8236 71.73C77.0569 71.73 77.2636 71.7583 77.4436 71.815C77.6269 71.8717 77.7869 71.945 77.9236 72.035C78.0636 72.125 78.1786 72.2217 78.2686 72.325C78.3619 72.4283 78.4336 72.525 78.4836 72.615V69.57H79.5586V77H78.7586L78.6386 75.94C78.6019 76.0533 78.5453 76.1767 78.4686 76.31C78.3919 76.4433 78.2869 76.57 78.1536 76.69C78.0236 76.81 77.8569 76.9083 77.6536 76.985C77.4503 77.0617 77.2053 77.1 76.9186 77.1ZM77.1236 76.295C77.6036 76.295 77.9503 76.145 78.1636 75.845C78.3769 75.5417 78.4836 75.045 78.4836 74.355C78.4803 73.965 78.4319 73.635 78.3386 73.365C78.2453 73.095 78.1003 72.8917 77.9036 72.755C77.7103 72.615 77.4553 72.545 77.1386 72.545C76.7419 72.545 76.4186 72.6883 76.1686 72.975C75.9186 73.2583 75.7936 73.7183 75.7936 74.355C75.7936 74.9817 75.9069 75.4617 76.1336 75.795C76.3636 76.1283 76.6936 76.295 77.1236 76.295ZM82.1988 71.83V77H81.1688V71.83H82.1988ZM82.2188 69.775V70.83H81.1438V69.775H82.2188ZM83.7934 77V71.83H84.8384V72.575C84.9217 72.435 85.0334 72.3033 85.1734 72.18C85.3167 72.0567 85.4917 71.9567 85.6984 71.88C85.9084 71.8033 86.15 71.765 86.4234 71.765C86.7467 71.765 87.045 71.83 87.3184 71.96C87.595 72.0867 87.8167 72.2867 87.9834 72.56C88.15 72.83 88.2334 73.18 88.2334 73.61V77H87.1634V73.725C87.1634 73.355 87.0634 73.08 86.8634 72.9C86.6667 72.72 86.4117 72.63 86.0984 72.63C85.8884 72.63 85.6884 72.665 85.4984 72.735C85.3084 72.805 85.155 72.9117 85.0384 73.055C84.9217 73.195 84.8634 73.3717 84.8634 73.585V77H83.7934ZM91.8439 78.71C91.0039 78.71 90.3539 78.5917 89.8939 78.355C89.4339 78.1217 89.2039 77.795 89.2039 77.375C89.2039 77.1917 89.2472 77.0367 89.3339 76.91C89.4239 76.78 89.5289 76.6733 89.6489 76.59C89.7722 76.5067 89.8856 76.4417 89.9889 76.395C90.0922 76.345 90.1589 76.31 90.1889 76.29C90.1322 76.2567 90.0589 76.215 89.9689 76.165C89.8822 76.1117 89.8039 76.0417 89.7339 75.955C89.6639 75.865 89.6289 75.7483 89.6289 75.605C89.6289 75.4383 89.7072 75.285 89.8639 75.145C90.0239 75.0017 90.2622 74.8967 90.5789 74.83C90.2656 74.6767 90.0222 74.47 89.8489 74.21C89.6789 73.95 89.5939 73.6733 89.5939 73.38C89.5939 73.0433 89.6889 72.7533 89.8789 72.51C90.0689 72.2633 90.3356 72.075 90.6789 71.945C91.0256 71.815 91.4322 71.75 91.8989 71.75C92.2389 71.75 92.5239 71.7883 92.7539 71.865C92.9839 71.9417 93.1956 72.0483 93.3889 72.185C93.4522 72.1617 93.5422 72.1267 93.6589 72.08C93.7756 72.03 93.9039 71.9767 94.0439 71.92C94.1872 71.8633 94.3222 71.8083 94.4489 71.755C94.5789 71.7017 94.6839 71.6583 94.7639 71.625L94.7589 72.555L93.8589 72.72C93.9056 72.82 93.9422 72.93 93.9689 73.05C93.9989 73.17 94.0139 73.28 94.0139 73.38C94.0139 73.68 93.9322 73.9567 93.7689 74.21C93.6056 74.46 93.3606 74.66 93.0339 74.81C92.7072 74.96 92.2989 75.035 91.8089 75.035C91.7622 75.035 91.7022 75.035 91.6289 75.035C91.5556 75.0317 91.4939 75.0267 91.4439 75.02C91.1339 75.03 90.9206 75.0667 90.8039 75.13C90.6872 75.19 90.6289 75.2567 90.6289 75.33C90.6289 75.4233 90.7039 75.4867 90.8539 75.52C91.0039 75.5533 91.2506 75.5817 91.5939 75.605C91.7172 75.615 91.8739 75.625 92.0639 75.635C92.2572 75.645 92.4706 75.6583 92.7039 75.675C93.2706 75.7083 93.7022 75.85 93.9989 76.1C94.2989 76.35 94.4489 76.6817 94.4489 77.095C94.4489 77.5683 94.2339 77.955 93.8039 78.255C93.3739 78.5583 92.7206 78.71 91.8439 78.71ZM92.0289 78.055C92.4856 78.055 92.8289 77.9883 93.0589 77.855C93.2922 77.725 93.4089 77.53 93.4089 77.27C93.4089 77.0767 93.3339 76.9183 93.1839 76.795C93.0339 76.6717 92.8106 76.6 92.5139 76.58L91.1339 76.49C90.9972 76.4833 90.8606 76.5133 90.7239 76.58C90.5906 76.6467 90.4789 76.74 90.3889 76.86C90.3022 76.9767 90.2589 77.1067 90.2589 77.25C90.2589 77.51 90.4022 77.7083 90.6889 77.845C90.9789 77.985 91.4256 78.055 92.0289 78.055ZM91.8389 74.38C92.1856 74.38 92.4639 74.2967 92.6739 74.13C92.8872 73.96 92.9939 73.7167 92.9939 73.4C92.9939 73.0733 92.8872 72.8217 92.6739 72.645C92.4639 72.465 92.1856 72.375 91.8389 72.375C91.4889 72.375 91.2056 72.465 90.9889 72.645C90.7756 72.825 90.6689 73.0767 90.6689 73.4C90.6689 73.7067 90.7706 73.9467 90.9739 74.12C91.1806 74.2933 91.4689 74.38 91.8389 74.38ZM95.6444 77V75.71H96.8794V77H95.6444ZM98.4862 77V75.71H99.7212V77H98.4862ZM101.328 77V75.71H102.563V77H101.328Z" fill="#152427"/>
<circle cx="71" cy="106" r="7.5" stroke="white"/>
<circle cx="81" cy="106" r="7.5" stroke="white"/>
<circle cx="91" cy="106" r="7.5" stroke="white"/>
<circle cx="101" cy="106" r="7.5" stroke="white"/>
<path d="M0.22 103.745V102.77H5.775V103.745H3.59V110H2.51V103.745H0.22ZM6.8182 107.665C6.8182 107.975 6.8682 108.253 6.9682 108.5C7.07154 108.743 7.22654 108.937 7.4332 109.08C7.63987 109.22 7.89654 109.29 8.2032 109.29C8.50987 109.29 8.77487 109.22 8.9982 109.08C9.22487 108.94 9.3732 108.732 9.4432 108.455H10.4332C10.3732 108.808 10.2315 109.108 10.0082 109.355C9.7882 109.602 9.52154 109.788 9.2082 109.915C8.89487 110.038 8.56654 110.1 8.2232 110.1C7.7332 110.1 7.30154 109.995 6.9282 109.785C6.55487 109.572 6.2632 109.268 6.0532 108.875C5.84654 108.482 5.7432 108.013 5.7432 107.47C5.7432 106.933 5.8382 106.46 6.0282 106.05C6.2182 105.637 6.4932 105.313 6.8532 105.08C7.2132 104.847 7.64654 104.73 8.1532 104.73C8.6532 104.73 9.0732 104.837 9.4132 105.05C9.75654 105.263 10.0165 105.563 10.1932 105.95C10.3699 106.333 10.4582 106.787 10.4582 107.31V107.665H6.8182ZM6.8182 106.97H9.4382C9.4382 106.7 9.39154 106.455 9.2982 106.235C9.20487 106.012 9.06154 105.837 8.8682 105.71C8.6782 105.58 8.4382 105.515 8.1482 105.515C7.85154 105.515 7.60487 105.587 7.4082 105.73C7.21154 105.873 7.0632 106.057 6.9632 106.28C6.86654 106.503 6.8182 106.733 6.8182 106.97ZM13.0441 110.1C12.7108 110.1 12.4141 110.04 12.1541 109.92C11.8975 109.8 11.6958 109.627 11.5491 109.4C11.4025 109.173 11.3291 108.9 11.3291 108.58C11.3291 108.007 11.5325 107.578 11.9391 107.295C12.3458 107.012 12.9941 106.862 13.8841 106.845L14.7341 106.82V106.445C14.7341 106.148 14.6458 105.915 14.4691 105.745C14.2925 105.575 14.0208 105.492 13.6541 105.495C13.3775 105.495 13.1308 105.558 12.9141 105.685C12.7008 105.812 12.5608 106.02 12.4941 106.31H11.5641C11.5841 105.967 11.6825 105.678 11.8591 105.445C12.0391 105.208 12.2858 105.03 12.5991 104.91C12.9125 104.79 13.2808 104.73 13.7041 104.73C14.1741 104.73 14.5608 104.795 14.8641 104.925C15.1675 105.052 15.3925 105.238 15.5391 105.485C15.6891 105.732 15.7641 106.032 15.7641 106.385V110H14.8591L14.7741 109.05C14.5808 109.447 14.3358 109.722 14.0391 109.875C13.7458 110.025 13.4141 110.1 13.0441 110.1ZM13.3791 109.355C13.5425 109.355 13.7041 109.327 13.8641 109.27C14.0241 109.21 14.1691 109.13 14.2991 109.03C14.4291 108.927 14.5325 108.812 14.6091 108.685C14.6891 108.558 14.7308 108.428 14.7341 108.295V107.44L14.0341 107.455C13.6775 107.458 13.3741 107.495 13.1241 107.565C12.8775 107.635 12.6875 107.743 12.5541 107.89C12.4241 108.037 12.3591 108.232 12.3591 108.475C12.3591 108.752 12.4558 108.968 12.6491 109.125C12.8425 109.278 13.0858 109.355 13.3791 109.355ZM17.268 110V104.83H18.308V105.575C18.4546 105.348 18.6546 105.152 18.908 104.985C19.1613 104.815 19.488 104.73 19.888 104.73C20.0746 104.73 20.263 104.762 20.453 104.825C20.6463 104.888 20.823 104.983 20.983 105.11C21.1463 105.233 21.2746 105.387 21.368 105.57C21.5313 105.323 21.7496 105.122 22.023 104.965C22.2963 104.808 22.603 104.73 22.943 104.73C23.1263 104.73 23.3163 104.76 23.513 104.82C23.7096 104.877 23.8913 104.975 24.058 105.115C24.228 105.252 24.3646 105.442 24.468 105.685C24.5746 105.928 24.628 106.237 24.628 106.61V110H23.553V106.725C23.553 106.442 23.5046 106.22 23.408 106.06C23.3146 105.9 23.1913 105.788 23.038 105.725C22.888 105.658 22.728 105.625 22.558 105.625C22.4046 105.625 22.2446 105.655 22.078 105.715C21.9113 105.775 21.7696 105.875 21.653 106.015C21.5363 106.155 21.478 106.345 21.478 106.585V110H20.408V106.495C20.408 106.305 20.3563 106.145 20.253 106.015C20.153 105.885 20.0263 105.788 19.873 105.725C19.723 105.658 19.573 105.625 19.423 105.625C19.2563 105.625 19.0896 105.658 18.923 105.725C18.7563 105.792 18.6163 105.897 18.503 106.04C18.393 106.18 18.338 106.362 18.338 106.585V110H17.268ZM27.8153 110.1C27.4553 110.1 27.117 110.043 26.8003 109.93C26.487 109.817 26.2236 109.638 26.0103 109.395C25.8003 109.152 25.6686 108.84 25.6153 108.46H26.5703C26.6136 108.657 26.6953 108.82 26.8153 108.95C26.9386 109.077 27.0853 109.172 27.2553 109.235C27.4286 109.295 27.6136 109.325 27.8103 109.325C28.137 109.325 28.4003 109.267 28.6003 109.15C28.8036 109.03 28.9053 108.847 28.9053 108.6C28.9053 108.423 28.8503 108.282 28.7403 108.175C28.6336 108.068 28.4636 107.99 28.2303 107.94L27.2003 107.695C26.7736 107.595 26.432 107.437 26.1753 107.22C25.9186 107 25.7886 106.693 25.7853 106.3C25.7853 105.997 25.8603 105.727 26.0103 105.49C26.1636 105.253 26.3903 105.068 26.6903 104.935C26.9903 104.798 27.3636 104.73 27.8103 104.73C28.3936 104.73 28.862 104.86 29.2153 105.12C29.5686 105.38 29.752 105.757 29.7653 106.25H28.8403C28.807 106.013 28.6986 105.828 28.5153 105.695C28.3353 105.558 28.097 105.49 27.8003 105.49C27.4936 105.49 27.242 105.552 27.0453 105.675C26.8486 105.795 26.7503 105.98 26.7503 106.23C26.7503 106.4 26.822 106.535 26.9653 106.635C27.1086 106.732 27.3236 106.812 27.6103 106.875L28.5903 107.12C28.8436 107.187 29.052 107.275 29.2153 107.385C29.3786 107.492 29.507 107.61 29.6003 107.74C29.6936 107.87 29.7586 108.005 29.7953 108.145C29.8353 108.285 29.8553 108.417 29.8553 108.54C29.8553 108.867 29.772 109.147 29.6053 109.38C29.442 109.61 29.207 109.788 28.9003 109.915C28.597 110.038 28.2353 110.1 27.8153 110.1ZM32.1168 105.015V106.295H30.8768V105.015H32.1168ZM32.1168 108.695V109.97H30.8768V108.695H32.1168Z" fill="#152427"/>
</svg>
